<svg xmlns="http://www.w3.org/2000/svg" height="512pt" version="1.1" viewBox="-150 0 512 512.00002" width="512pt">
<g id="surface1">
<path d="M 120.613281 361.789062 L 120.613281 256 C 120.613281 247.84375 114.003906 241.230469 105.84375 241.230469 C 97.6875 241.230469 91.078125 247.84375 91.078125 256 L 91.078125 361.789062 C 72.503906 367.988281 59.078125 385.527344 59.078125 406.152344 C 59.078125 431.941406 80.058594 452.921875 105.84375 452.921875 C 131.632812 452.921875 152.613281 431.941406 152.613281 406.152344 C 152.613281 385.527344 139.1875 367.988281 120.613281 361.789062 Z M 105.84375 423.382812 C 96.34375 423.382812 88.613281 415.652344 88.613281 406.152344 C 88.613281 396.652344 96.34375 388.921875 105.84375 388.921875 C 115.347656 388.921875 123.078125 396.652344 123.078125 406.152344 C 123.078125 415.652344 115.347656 423.382812 105.84375 423.382812 Z M 105.84375 423.382812 " style=" stroke:none;fill-rule:nonzero;fill:rgb(0%,0%,0%);fill-opacity:1;" />
<path d="M 169.84375 321.835938 L 169.84375 64 C 169.84375 28.710938 141.136719 0 105.84375 0 C 70.554688 0 41.847656 28.710938 41.847656 64 L 41.847656 321.839844 C 15.863281 341.550781 0.371094 372.050781 0.0078125 404.957031 C -0.640625 463.164062 46.167969 511.179688 104.34375 511.988281 C 104.851562 511.996094 105.355469 512 105.863281 512 C 133.863281 512 160.199219 501.207031 180.164062 481.519531 C 200.496094 461.46875 211.691406 434.703125 211.691406 406.152344 C 211.691406 372.757812 196.195312 341.8125 169.84375 321.835938 Z M 159.425781 460.488281 C 145.03125 474.683594 126.042969 482.460938 105.851562 482.460938 C 105.484375 482.460938 105.121094 482.457031 104.753906 482.453125 C 62.816406 481.867188 29.078125 447.253906 29.542969 405.285156 C 29.828125 379.570312 42.9375 355.886719 64.609375 341.9375 C 68.832031 339.21875 71.382812 334.539062 71.382812 329.519531 L 71.382812 64 C 71.382812 44.996094 86.84375 29.539062 105.84375 29.539062 C 124.847656 29.539062 140.308594 44.996094 140.308594 64 L 140.308594 73.847656 L 125.539062 73.847656 C 117.382812 73.847656 110.769531 80.457031 110.769531 88.613281 C 110.769531 96.773438 117.382812 103.382812 125.539062 103.382812 L 140.308594 103.382812 L 140.308594 123.078125 L 125.539062 123.078125 C 117.382812 123.078125 110.769531 129.6875 110.769531 137.847656 C 110.769531 146.003906 117.382812 152.613281 125.539062 152.613281 L 140.308594 152.613281 L 140.308594 172.308594 L 125.539062 172.308594 C 117.382812 172.308594 110.769531 178.921875 110.769531 187.078125 C 110.769531 195.234375 117.382812 201.847656 125.539062 201.847656 L 140.308594 201.847656 L 140.308594 329.519531 C 140.308594 334.539062 142.859375 339.21875 147.082031 341.9375 C 169.042969 356.074219 182.152344 380.078125 182.152344 406.152344 C 182.152344 426.738281 174.082031 446.03125 159.425781 460.488281 Z M 159.425781 460.488281 " style=" stroke:none;fill-rule:nonzero;fill:rgb(0%,0%,0%);fill-opacity:1;" />
</g>
</svg>